<?xml version="1.0" encoding="UTF-8" standalone="no"?>
<svg xmlns="http://www.w3.org/2000/svg" version="1.2" width="376.000000pt" height="376.000000pt" viewBox="0 0 376.000000pt 376.000000pt" preserveAspectRatio="xMidYMid meet">
  <g transform="translate(0.000000,376.000000) scale(0.100000,-0.100000)" fill="#000000" stroke="none">
    <path d="M2715 2880 c-383 -95 -643 -193 -911 -345 -335 -191 -595 -424 -777 -700 -60 -91 -157 -278 -157 -304 0 -8 -2 -12 -5 -9 -3 3 6 59 19 124 73 361 211 627 493 950 l62 72 -294 121 c-161 66 -296 121 -300 121 -3 0 -4 -4 -1 -9 6 -9 16 -1160 16 -1713 l0 -328 1025 0 1025 0 0 320 0 320 -1022 2 -1023 3 130 66 c235 121 428 192 658 243 169 37 302 49 472 43 275 -11 498 -78 708 -213 37 -24 70 -44 72 -44 3 0 5 110 5 244 l0 243 -52 17 c-208 65 -538 80 -783 35 -384 -69 -865 -306 -1145 -564 l-54 -50 34 45 c336 436 806 732 1305 821 108 20 165 24 335 24 127 -1 233 -6 278 -14 40 -7 75 -11 78 -9 2 3 3 124 2 270 l-3 264 -190 -46z m-1410 -1474 c54 -23 84 -53 91 -91 7 -38 -16 -89 -47 -106 -21 -11 -21 -11 7 -29 48 -29 69 -59 68 -98 0 -119 -98 -162 -371 -162 l-133 0 0 256 0 256 173 -4 c134 -3 181 -8 212 -22z m895 -11 l0 -35 -120 0 -120 0 -2 -217 -3 -218 -70 0 -70 0 -3 218 -2 217 -125 0 -125 0 0 35 0 35 320 0 320 0 0 -35z m650 5 l0 -30 -166 0 c-95 0 -174 -4 -185 -10 -16 -9 -19 -22 -19 -75 l0 -65 130 0 130 0 0 -25 0 -25 -130 0 -130 0 0 -60 c0 -47 4 -64 20 -80 34 -34 65 -40 211 -40 l139 0 0 -35 0 -35 -112 0 c-151 1 -235 13 -302 43 -91 42 -96 56 -96 280 l0 187 255 0 255 0 0 -30z"></path>
    <path d="M1066 1344 c-3 -9 -6 -40 -6 -70 l0 -54 53 0 c109 0 169 38 148 92 -12 32 -56 48 -131 48 -44 0 -59 -4 -64 -16z"></path>
    <path d="M1060 1086 c0 -99 11 -111 97 -103 98 9 132 35 133 99 0 42 -93 78 -198 78 l-32 0 0 -74z"></path>
    <path d="M2920 1885 l0 -1035 -1042 -3 -1043 -2 1048 -3 1047 -2 0 1040 c0 572 -2 1040 -5 1040 -3 0 -5 -466 -5 -1035z"></path>
    <path d="M1585 2820 l-59 -60 54 -55 c30 -30 59 -55 64 -55 6 0 36 25 67 56 l56 56 53 -62 54 -61 58 58 c32 31 58 60 58 63 0 3 -25 31 -55 64 l-54 59 -61 -59 -61 -58 -57 57 -58 57 -59 -60z"></path>
    <path d="M1828 1723 l-57 -58 53 -57 c29 -32 54 -58 57 -58 3 0 32 24 64 54 l59 54 -44 49 c-58 63 -68 73 -72 73 -2 0 -29 -26 -60 -57z"></path>
  </g>
  <title>Title</title>
</svg>
